<?xml version="1.0" encoding="UTF-8" standalone="no"?><!DOCTYPE svg PUBLIC "-//W3C//DTD SVG 1.1//EN" "http://www.w3.org/Graphics/SVG/1.1/DTD/svg11.dtd"><svg width="100%" height="100%" viewBox="0 0 800 800" version="1.1" xmlns="http://www.w3.org/2000/svg" xmlns:xlink="http://www.w3.org/1999/xlink" xml:space="preserve" xmlns:serif="http://www.serif.com/" style="fill-rule:evenodd;clip-rule:evenodd;stroke-linejoin:round;stroke-miterlimit:2;"><path d="M742.73,327.37c18.086,-54.467 11.816,-114.172 -17.19,-163.693c-43.521,-75.753 -131.569,-114.977 -216.993,-96.667c-38.323,-42.629 -93.024,-67.009 -150.347,-67.009c-87.238,0 -165.087,56.466 -192.176,139.393c-56.233,11.531 -104.839,46.791 -133.257,96.667c-43.996,75.631 -33.945,171.67 24.757,236.553c-18.153,54.441 -11.94,114.153 17.033,163.69c43.575,75.78 131.682,115.003 217.153,96.67c38.098,42.903 92.911,67.349 150.287,67.027c87.56,0.081 165.646,-56.819 192.393,-140.193c56.226,-11.551 104.824,-46.807 133.257,-96.67c43.466,-75.503 33.372,-171.015 -24.917,-235.763l-0,-0.003Zm-300.733,420.27c-35.034,0.055 -68.993,-12.232 -95.88,-34.693l4.73,-2.68l159.277,-91.94c8.055,-4.724 13.04,-13.372 13.09,-22.71l0,-224.563l67.333,38.953c0.675,0.342 1.146,0.987 1.267,1.733l0,186.087c-0.175,82.12 -67.696,149.64 -149.817,149.813Zm-322.023,-137.513c-17.57,-30.339 -23.883,-65.926 -17.82,-100.457l4.733,2.84l159.433,91.94c8.022,4.707 17.998,4.707 26.02,0l194.76,-112.283l0,77.747c-0.037,0.816 -0.445,1.571 -1.107,2.05l-161.327,93.043c-71.21,41.022 -163.556,16.264 -204.693,-54.88Zm-41.947,-346.94c17.692,-30.534 45.636,-53.839 78.85,-65.76l0,189.24c-0.122,9.299 4.843,17.958 12.93,22.55l193.813,111.81l-67.337,38.95c-0.739,0.393 -1.627,0.393 -2.367,0l-161.01,-92.883c-71.071,-41.197 -95.81,-133.468 -54.88,-204.693l0,0.787Zm553.21,128.527l-194.443,-112.913l67.18,-38.8c0.739,-0.393 1.627,-0.393 2.367,0l161.01,93.043c46.313,26.723 74.939,76.291 74.939,129.761c0,62.415 -39.005,118.58 -97.489,140.379l0,-189.24c-0.284,-9.274 -5.449,-17.739 -13.567,-22.233l0.003,0.003Zm67.023,-100.77l-4.733,-2.84l-159.117,-92.727c-8.072,-4.737 -18.108,-4.737 -26.18,0l-194.597,112.28l0,-77.743c-0.084,-0.804 0.28,-1.593 0.947,-2.05l161.01,-92.887c22.768,-13.116 48.588,-20.022 74.863,-20.022c82.273,-0 149.973,67.7 149.973,149.973c0,8.507 -0.724,16.998 -2.163,25.382l-0.003,0.633Zm-421.377,137.823l-67.333,-38.793c-0.682,-0.41 -1.146,-1.104 -1.267,-1.89l0,-185.61c0.107,-82.199 67.774,-149.778 149.973,-149.778c35.019,0 68.956,12.266 95.883,34.655l-4.733,2.683l-159.273,91.933c-8.055,4.724 -13.04,13.372 -13.09,22.71l-0.16,224.09Zm36.587,-78.847l86.733,-49.993l86.897,49.993l0,99.98l-86.58,49.99l-86.89,-49.99l-0.16,-99.98Z" style="fill:#fff;fill-rule:nonzero;"/></svg>