<?xml version="1.0" encoding="UTF-8"?>
<svg id="Layer_1" xmlns="http://www.w3.org/2000/svg" version="1.1" viewBox="0 0 3178.8 1280">
  <!-- Generator: Adobe Illustrator 29.6.0, SVG Export Plug-In . SVG Version: 2.1.1 Build 207)  -->
  <defs>
    <style>
      .st0 {
        fill: #ff0068;
      }

      .st1, .st2 {
        display: none;
      }

      .st1, .st3 {
        isolation: isolate;
      }

      .st4 {
        fill: #0086ff;
      }

      .st5 {
        fill: #f9f9f9;
      }

      .st3 {
        font-family: IBMPlexMono-BoldItalic, 'IBM Plex Mono';
        font-size: 900px;
        font-style: italic;
        font-weight: 700;
      }
    </style>
  </defs>
  <g id="Layer_11" data-name="Layer_1">
    <g>
      <path class="st5" d="M39.8,1033L171.55,247h502.24l-22.52,137.38h-337.83l-30.4,182.43h177.84l-22.52,137.38h-178.96l-31.53,191.43h336.7l-22.52,137.38H39.8Z"/>
      <path class="st4" d="M781.9,384.38l23.66-137.38h374.95l-108.1,650.88h167.79l-22.52,135.13h-545.03l22.52-135.13h210.58l85.4-513.5"/>
    </g>
  </g>
  <g id="Layer_2" class="st2">
    <polygon class="st0" points="737.91 41.4 703.61 250.65 189.05 250.65 142.74 528.51 413.61 528.51 379.31 737.77 106.73 737.77 58.7 1029.35 571.54 1029.35 537.24 1238.6 736.18 1238.6 770.49 1032.78 1091.23 1032.78 1221.3 250.65 902.58 250.65 938.63 41.4 737.91 41.4"/>
  </g>
  <g id="Layer_4" class="st2">
    <g class="st1">
      <text class="st3" transform="translate(100.01 995.5)"><tspan x="0" y="0">E1</tspan></text>
    </g>
  </g>
  <g id="Layer_5" class="st2">
    <polygon points="640.91 367.3 622.91 477.1 352.91 477.1 328.61 622.9 476.1 622.9 458.1 732.7 309.71 732.7 284.51 885.7 553.61 885.7 535.61 995.5 682.3 995.5 700.3 887.5 868.6 887.5 938.8 465.4 930.7 465.4 778.6 632.8 699.4 565.3 879.4 367.3 640.91 367.3"/>
  </g>
  <g>
    <path class="st5" d="M1514.02,245.09h165.75c42.42,0,74.83,10.26,97.21,30.77,22.38,20.52,33.57,47.8,33.57,81.83,0,68.08-33.81,110.5-101.41,127.28l-.7,3.5c25.64,5.14,45.34,15.39,59.1,30.77,13.75,15.39,20.63,36.14,20.63,62.24,0,22.85-3.85,43.6-11.54,62.24-7.69,18.65-18.77,34.62-33.22,47.91-14.46,13.29-32.06,23.55-52.8,30.77-20.75,7.23-43.95,10.84-69.59,10.84h-188.83l81.83-488.16ZM1598.64,660.51c23.31,0,41.72-3.96,55.25-11.89,13.52-7.92,21.91-21.44,25.18-40.56l2.8-16.78c.93-4.2,1.75-8.62,2.45-13.29.7-4.65,1.05-8.39,1.05-11.19,0-16.31-4.67-27.97-13.99-34.97-9.33-6.99-24.48-10.49-45.46-10.49h-57.35l-23.08,139.17h53.15ZM1620.32,452.1c24.71,0,43.36-3.61,55.95-10.84,12.59-7.22,20.74-21.33,24.48-42.31l2.8-16.78c.46-2.33.93-5.7,1.4-10.14.46-4.43.7-8.27.7-11.54,0-15.84-5.02-26.93-15.04-33.22-10.03-6.29-24.37-9.44-43.01-9.44h-44.76l-22.38,134.28h39.86Z"/>
    <path class="st5" d="M1863,733.25l81.13-488.16h103.51l-67.14,402.83h211.21l-13.99,85.32h-314.71Z"/>
    <path class="st5" d="M2442.06,741.64c-29.37,0-54.79-4.2-76.23-12.59-21.45-8.39-39.16-20.51-53.15-36.37-13.99-15.84-24.25-35.2-30.77-58.05-6.53-22.84-9.79-48.49-9.79-76.93,0-41.49,4.08-81.59,12.24-120.29,8.15-38.69,21.09-72.84,38.82-102.46,17.71-29.6,40.44-53.38,68.19-71.34,27.73-17.94,60.95-26.93,99.66-26.93,29.37,0,54.78,4.2,76.23,12.59,21.44,8.39,39.16,20.52,53.15,36.37,13.99,15.86,24.24,35.21,30.77,58.05,6.52,22.85,9.79,48.5,9.79,76.93,0,41.5-4.09,81.6-12.24,120.29-8.16,38.71-21.1,72.85-38.81,102.46-17.72,29.61-40.45,53.39-68.19,71.33-27.74,17.95-60.96,26.93-99.66,26.93ZM2442.06,657.72c29.37,0,50.93-10.95,64.69-32.87,13.75-21.91,23.89-52.91,30.42-93.02l13.99-83.92c2.8-16.78,4.2-33.57,4.2-50.35,0-24.24-5.14-43.12-15.39-56.65-10.26-13.52-26.58-20.28-48.96-20.28-29.37,0-50.94,10.96-64.69,32.87-13.76,21.92-23.9,52.92-30.42,93.02l-13.99,83.92c-2.8,16.78-4.2,33.57-4.2,50.35,0,24.25,5.13,43.13,15.39,56.65,10.25,13.53,26.58,20.28,48.96,20.28Z"/>
    <path class="st5" d="M2939.3,662.61h-6.29c-6.06,10.73-12.36,20.87-18.88,30.42-6.54,9.56-13.88,17.95-22.03,25.18-8.16,7.23-17.48,12.94-27.97,17.13-10.49,4.2-22.73,6.29-36.72,6.29-40.1,0-71.68-15.14-94.76-45.46-23.08-30.3-34.62-75.06-34.62-134.28,0-46.16,4.78-89.17,14.34-129.03,9.55-39.86,23.78-74.24,42.66-103.16,18.88-28.9,42.42-51.63,70.64-68.19,28.2-16.54,60.95-24.83,98.26-24.83,25.18,0,47.09,3.5,65.74,10.49,18.64,6.99,34.27,16.9,46.86,29.72,12.59,12.83,22.38,28.09,29.37,45.81,6.99,17.72,11.19,37.07,12.59,58.05l-100.01,19.58c-.94-10.25-2.45-20.28-4.55-30.07-2.1-9.79-5.59-18.29-10.49-25.53-4.9-7.22-11.19-13.05-18.88-17.48-7.69-4.43-17.6-6.64-29.72-6.64-26.58,0-47.21,11.19-61.89,33.57-14.69,22.38-25.3,52.45-31.82,90.22l-11.89,71.34c-1.4,8.39-2.69,18.3-3.85,29.72-1.17,11.43-1.75,21.8-1.75,31.12,0,24.72,5.25,44.41,15.74,59.1,10.49,14.69,26.93,22.03,49.31,22.03,24.71,0,44.06-7.69,58.05-23.08,13.99-15.39,22.84-33.57,26.58-54.55l5.6-33.57h-86.02l11.89-73.43h177.64l-43.36,260.16h-91.62l11.89-70.64Z"/>
  </g>
</svg>