<svg version="1.1" id="E1" xmlns="http://www.w3.org/2000/svg" xmlns:xlink="http://www.w3.org/1999/xlink" x="0px" y="0px" viewBox="0 0 418.43 365.93" style="enable-background:new 0 0 418.43 365.93;" xml:space="preserve">
<style type="text/css">
	.st0{fill:#FFFFFF;}
</style>
<polygon id="E" class="st0" points="0.1,54.49 181.07,54.49 181.07,91.77 44,91.77 44,189.5 156,189.5 156,227.5 44,227.5 44,327.5   188,327.5 188,365.58 0.1,365.58 "/>
<path id="_x31_" class="st0" d="M234.5,327h69V107l-45,45L233,126.5L290.5,69c0,0,0,0,55,52c0,66,0,206,0,206h67.91v38.58L234.5,366  V327z"/>
<path id="Heart" class="st0" d="M385,0c-12.04,0-22.6,6.36-28.5,15.89C350.6,6.36,340.04,0,328,0c-18.5,0-33.5,15-33.5,33.5  c0,4.12,0.75,8.06,2.1,11.7c3.28,13.63,15.72,26.14,59.9,64.8c44.18-38.66,56.61-51.17,59.9-64.8c1.36-3.64,2.1-7.58,2.1-11.7  C418.5,15,403.5,0,385,0z"/>
</svg>