<?xml version="1.0" encoding="UTF-8"?>
<svg id="Layer_1" xmlns="http://www.w3.org/2000/svg" version="1.1" viewBox="0 0 3178.8 1280">
  <!-- Generator: Adobe Illustrator 29.6.0, SVG Export Plug-In . SVG Version: 2.1.1 Build 207)  -->
  <defs>
    <style>
      .st0 {
        fill: #ff0068;
      }

      .st1, .st2 {
        display: none;
      }

      .st1, .st3 {
        isolation: isolate;
      }

      .st4 {
        fill: #0086ff;
      }

      .st5 {
        fill: #f9f9f9;
      }

      .st3 {
        font-family: IBMPlexMono-BoldItalic, 'IBM Plex Mono';
        font-size: 900px;
        font-style: italic;
        font-weight: 700;
      }
    </style>
  </defs>
  <g id="Layer_11" data-name="Layer_1">
    <g>
      <path class="st5" d="M39.8,1033L171.55,247h502.24l-22.52,137.38h-337.83l-30.4,182.43h177.84l-22.52,137.38h-178.96l-31.53,191.43h336.7l-22.52,137.38H39.8Z"/>
      <path class="st4" d="M781.9,384.38l23.66-137.38h374.95l-108.1,650.88h167.79l-22.52,135.13h-545.03l22.52-135.13h210.58l85.4-513.5"/>
    </g>
  </g>
  <g id="Layer_2" class="st2">
    <polygon class="st0" points="737.91 41.4 703.61 250.65 189.05 250.65 142.74 528.51 413.61 528.51 379.31 737.77 106.73 737.77 58.7 1029.35 571.54 1029.35 537.24 1238.6 736.18 1238.6 770.49 1032.78 1091.23 1032.78 1221.3 250.65 902.58 250.65 938.63 41.4 737.91 41.4"/>
  </g>
  <g id="Layer_4" class="st2">
    <g class="st1">
      <text class="st3" transform="translate(100.01 995.5)"><tspan x="0" y="0">E1</tspan></text>
    </g>
  </g>
  <g id="Layer_5" class="st2">
    <polygon points="640.91 367.3 622.91 477.1 352.91 477.1 328.61 622.9 476.1 622.9 458.1 732.7 309.71 732.7 284.51 885.7 553.61 885.7 535.61 995.5 682.3 995.5 700.3 887.5 868.6 887.5 938.8 465.4 930.7 465.4 778.6 632.8 699.4 565.3 879.4 367.3 640.91 367.3"/>
  </g>
  <g>
    <path class="st5" d="M1359.18,245.92h182.15c46.62,0,82.24,11.28,106.83,33.82,24.59,22.55,36.89,52.53,36.89,89.92,0,74.82-37.16,121.44-111.44,139.88l-.77,3.84c28.17,5.64,49.83,16.91,64.94,33.82,15.11,16.91,22.67,39.71,22.67,68.4,0,25.11-4.23,47.92-12.68,68.4-8.45,20.5-20.63,38.04-36.51,52.65-15.89,14.6-35.23,25.88-58.03,33.82-22.81,7.95-48.3,11.91-76.47,11.91h-207.52l89.92-536.47ZM1452.18,702.46c25.62,0,45.85-4.35,60.72-13.07,14.86-8.71,24.08-23.56,27.67-44.58l3.07-18.45c1.02-4.61,1.92-9.48,2.69-14.6.77-5.12,1.15-9.22,1.15-12.3,0-17.93-5.13-30.74-15.37-38.43-10.26-7.69-26.9-11.53-49.96-11.53h-63.02l-25.36,152.95h58.41ZM1476,473.42c27.15,0,47.65-3.96,61.49-11.91,13.83-7.94,22.79-23.44,26.9-46.5l3.07-18.45c.5-2.56,1.02-6.27,1.54-11.14.5-4.86.77-9.09.77-12.68,0-17.41-5.51-29.59-16.52-36.51-11.02-6.92-26.78-10.38-47.27-10.38h-49.19l-24.6,147.57h43.81Z"/>
    <path class="st5" d="M1742.69,782.39l89.16-536.47h113.75l-73.78,442.7h232.11l-15.37,93.77h-345.86Z"/>
    <path class="st5" d="M2379.07,791.62c-32.28,0-60.21-4.61-83.78-13.83-23.57-9.22-43.04-22.54-58.41-39.97-15.37-17.41-26.65-38.68-33.82-63.79-7.18-25.1-10.76-53.28-10.76-84.54,0-45.6,4.48-89.66,13.45-132.2,8.96-42.52,23.18-80.05,42.66-112.6,19.47-32.53,44.45-58.66,74.94-78.4,30.48-19.72,66.99-29.59,109.52-29.59,32.28,0,60.2,4.61,83.78,13.83,23.56,9.22,43.04,22.55,58.41,39.97,15.37,17.43,26.64,38.69,33.82,63.79,7.17,25.11,10.76,53.3,10.76,84.54,0,45.61-4.49,89.67-13.45,132.2-8.97,42.54-23.19,80.06-42.66,112.6-19.48,32.54-44.46,58.68-74.94,78.4-30.49,19.73-67,29.59-109.52,29.59ZM2379.07,699.39c32.28,0,55.97-12.03,71.09-36.12,15.11-24.08,26.25-58.15,33.43-102.22l15.37-92.23c3.07-18.45,4.61-36.89,4.61-55.34,0-26.64-5.64-47.39-16.91-62.25-11.28-14.86-29.21-22.29-53.8-22.29-32.28,0-55.99,12.05-71.09,36.12-15.12,24.09-26.26,58.16-33.43,102.22l-15.37,92.23c-3.07,18.45-4.61,36.89-4.61,55.34,0,26.65,5.63,47.4,16.91,62.25,11.26,14.87,29.21,22.29,53.8,22.29Z"/>
    <path class="st5" d="M2925.53,704.77h-6.92c-6.67,11.79-13.58,22.94-20.75,33.43-7.18,10.51-15.25,19.73-24.21,27.67-8.97,7.95-19.21,14.22-30.74,18.83-11.53,4.61-24.98,6.92-40.35,6.92-44.07,0-78.78-16.64-104.14-49.96-25.36-33.3-38.04-82.49-38.04-147.57,0-50.73,5.25-97.99,15.76-141.8,10.5-43.81,26.13-81.59,46.88-113.37,20.75-31.76,46.62-56.74,77.63-74.94,31-18.18,66.99-27.28,107.99-27.28,27.67,0,51.75,3.84,72.25,11.53,20.49,7.69,37.66,18.58,51.5,32.66,13.83,14.1,24.59,30.88,32.28,50.34,7.69,19.48,12.3,40.73,13.83,63.79l-109.91,21.52c-1.03-11.26-2.69-22.29-5-33.05-2.31-10.76-6.15-20.1-11.53-28.05-5.38-7.94-12.3-14.34-20.75-19.21-8.45-4.86-19.35-7.3-32.66-7.3-29.21,0-51.88,12.3-68.02,36.89-16.14,24.59-27.8,57.64-34.97,99.15l-13.07,78.4c-1.54,9.22-2.95,20.12-4.23,32.66-1.28,12.56-1.92,23.96-1.92,34.2,0,27.16,5.76,48.81,17.29,64.94,11.53,16.14,29.59,24.21,54.19,24.21,27.15,0,48.42-8.46,63.79-25.36s25.1-36.89,29.21-59.95l6.15-36.89h-94.54l13.07-80.7h195.22l-47.65,285.91h-100.68l13.07-77.63Z"/>
  </g>
</svg>