<?xml version="1.0" encoding="UTF-8" standalone="no"?><!DOCTYPE svg PUBLIC "-//W3C//DTD SVG 1.1//EN" "http://www.w3.org/Graphics/SVG/1.1/DTD/svg11.dtd"><svg width="100%" height="100%" viewBox="0 0 1350 1350" version="1.1" xmlns="http://www.w3.org/2000/svg" xmlns:xlink="http://www.w3.org/1999/xlink" xml:space="preserve" xmlns:serif="http://www.serif.com/" style="fill-rule:evenodd;clip-rule:evenodd;stroke-linejoin:round;stroke-miterlimit:2;"><rect id="Page-2" serif:id="Page 2" x="0" y="0" width="1350" height="1350" style="fill:none;"/><g id="Dark"><path d="M921.762,659l-109.525,-189.703c-5.716,-9.9 -16.28,-16 -27.713,-16l-219.049,0c-11.433,0 -21.997,6.1 -27.713,16l-30.069,52.082c33.799,19.98 64.496,38.096 88.902,52.446c21.661,-16.811 48.862,-26.825 78.405,-26.825c70.692,0 128,57.308 128,128c0,70.692 -57.308,128 -128,128c-70.693,0 -128,-57.308 -128,-128c0,-7.3 0.62,-14.454 1.794,-21.42c-24.416,-13.836 -54.954,-31.081 -88.549,-50.019l-32.008,55.439c-5.716,9.901 -5.716,22.099 0,32l109.525,189.703c5.716,9.9 16.28,16 27.713,16l219.049,0c11.433,0 21.997,-6.1 27.713,-16l109.525,-189.703c5.716,-9.901 5.716,-22.099 0,-32" style="fill:#ededed;fill-rule:nonzero;"/><path d="M626.409,628.327c-50.031,-28.886 -257.723,-152.001 -385.49,-227.818l-10.711,-39.975c-3.235,-12.071 -12.06,-25.438 -19.713,-29.856l-110.851,-64c-7.653,-4.418 -11.235,1.786 -8,13.856l11.713,43.713c3.234,12.071 12.06,25.438 19.712,29.857c-7.652,-4.419 -23.642,-5.378 -35.712,-2.144l-43.713,11.713c-12.071,3.234 -15.653,9.438 -8,13.856l110.851,64c7.653,4.419 23.642,5.378 35.713,2.144l39.974,-10.711c129.543,72.741 340.01,191.05 390.041,219.936c73.566,42.473 87.752,17.902 14.186,-24.571" style="fill:#4dbfff;fill-rule:nonzero;"/><path d="M1159.287,627l-200.574,-347.405c-17.149,-29.703 -48.841,-48 -83.139,-48l-401.149,0c-34.297,0 -65.989,18.297 -83.138,48l-74.36,128.796c30.523,18.102 63.036,37.375 95.365,56.526l52.233,-90.471c11.432,-19.801 32.56,-32 55.425,-32l310.099,0c22.865,0 43.994,12.199 55.426,32l155.05,268.554c11.432,19.802 11.432,44.198 0,64l-155.05,268.554c-11.432,19.801 -32.561,32 -55.426,32l-310.099,0c-22.865,0 -43.993,-12.199 -55.425,-32l-155.05,-268.554c-11.432,-19.802 -11.432,-44.198 0,-64l54.172,-93.828c-32.749,-18.423 -65.697,-36.943 -96.635,-54.326l-76.299,132.154c-17.149,29.703 -17.149,66.297 0,96l200.574,347.405c17.149,29.702 48.841,48 83.138,48l401.149,0c34.298,0 65.99,-18.298 83.139,-48l200.574,-347.405c17.149,-29.703 17.149,-66.297 0,-96" style="fill:#4dbfff;fill-rule:nonzero;"/></g><g id="Light"></g><g id="Print"></g></svg>